<svg width="40" height="32" viewBox="0 0 40 32" fill="none" xmlns="http://www.w3.org/2000/svg">
<g id="ACR Logo">
<path id="path2" fill-rule="evenodd" clip-rule="evenodd" d="M30.8048 21.5482C30.3475 21.748 29.8636 21.8926 29.3629 21.9752C29.3581 21.9759 29.3534 21.9765 29.3486 21.9766C29.8568 21.8945 30.345 21.749 30.8048 21.5482Z" fill="#FECF63"/>
<path id="path8" fill-rule="evenodd" clip-rule="evenodd" d="M30.2823 12.4613L30.3175 12.5883L30.2822 12.4612L30.2823 12.4613Z" fill="#FECF63"/>
<path id="path12" fill-rule="evenodd" clip-rule="evenodd" d="M8.44948 25.0168L8.45126 25.0187C7.3117 25.0319 6.30971 24.9013 5.49023 24.6228C6.30929 24.9 7.31086 25.0301 8.44948 25.0168Z" fill="#FECF63"/>
<path id="path22" d="M30.4268 13.3816C30.446 13.349 30.4635 13.3158 30.4791 13.2815C30.462 13.3149 30.4446 13.3482 30.4268 13.3816Z" fill="url(#paint0_linear_267_7466)"/>
<path id="path32" d="M22.6729 21.3077L22.6817 21.3127L22.7656 21.3576L22.6729 21.3077Z" fill="url(#paint1_linear_267_7466)"/>
<path id="path41" d="M32.2747 22.9536L32.6709 24.2433L33.9606 24.6395L32.6709 25.0357L32.2747 26.3254L31.8786 25.0357L30.5889 24.6395L31.8786 24.2433L32.2747 22.9536Z" fill="url(#paint2_linear_267_7466)"/>
<path id="path50" d="M29.9573 2.66473L30.3535 3.95444L31.6432 4.35061L30.3535 4.74678L29.9573 6.03648L29.5612 4.74678L28.2715 4.35061L29.5612 3.95444L29.9573 2.66473Z" fill="url(#paint3_linear_267_7466)"/>
<path id="path59" d="M4.06535 5.65857L4.36756 6.64241L5.35139 6.94462L4.36756 7.24683L4.06535 8.23067L3.76313 7.24683L2.7793 6.94462L3.76313 6.64241L4.06535 5.65857Z" fill="url(#paint4_linear_267_7466)"/>
<path id="path68" d="M7.46615 27.5184L7.86231 28.8081L9.15201 29.2042L7.86231 29.6004L7.46615 30.8901L7.06997 29.6004L5.78027 29.2042L7.06997 28.8081L7.46615 27.5184Z" fill="url(#paint5_linear_267_7466)"/>
<path id="path77" d="M9.17562 8.95728C9.9905 8.95728 10.651 9.61781 10.651 10.4327C10.651 11.2476 9.9905 11.9081 9.17562 11.9081C8.36074 11.9081 7.7002 11.2476 7.7002 10.4327C7.7002 9.61781 8.36074 8.95728 9.17562 8.95728Z" fill="url(#paint6_linear_267_7466)"/>
<path id="path86" d="M13.4986 5.28601C14.0507 5.28601 14.4982 5.73353 14.4982 6.2856C14.4982 6.8377 14.0507 7.2852 13.4986 7.2852C12.9465 7.2852 12.499 6.8377 12.499 6.2856C12.499 5.73353 12.9465 5.28601 13.4986 5.28601Z" fill="url(#paint7_linear_267_7466)"/>
<path id="path95" d="M19.6139 5.1275C20.5512 5.1275 21.3109 5.88718 21.3109 6.82442C21.3109 7.76165 20.5512 8.52135 19.6139 8.52135C18.6767 8.52135 17.917 7.76165 17.917 6.82442C17.917 5.88718 18.6767 5.1275 19.6139 5.1275Z" fill="url(#paint8_linear_267_7466)"/>
<path id="path104" d="M7.0456 15.7957C7.66517 15.7957 8.16738 16.2979 8.16738 16.9174C8.16738 17.537 7.66517 18.0392 7.0456 18.0392C6.42602 18.0392 5.92383 17.537 5.92383 16.9174C5.92383 16.2979 6.42602 15.7957 7.0456 15.7957Z" fill="url(#paint9_linear_267_7466)"/>
<path id="path113" d="M21.8649 24.0818C22.4845 24.0818 22.9867 24.584 22.9867 25.2036C22.9867 25.8231 22.4845 26.3253 21.8649 26.3253C21.2454 26.3253 20.7432 25.8231 20.7432 25.2036C20.7432 24.584 21.2454 24.0818 21.8649 24.0818Z" fill="url(#paint10_linear_267_7466)"/>
<path id="path122" d="M27.8849 13.646C27.2957 13.0567 26.4764 12.692 25.5675 12.692C24.6626 12.692 23.8431 13.0588 23.2501 13.652C22.6569 14.2451 22.29 15.0645 22.29 15.9694C22.29 16.8783 22.6548 17.6976 23.2441 18.2868H23.2501C23.8431 18.8798 24.6626 19.2467 25.5675 19.2467C26.4725 19.2467 27.2919 18.8798 27.8849 18.2868C28.4779 17.6938 28.8448 16.8744 28.8448 15.9694C28.8448 15.0645 28.4779 14.2451 27.8849 13.652V13.646Z" fill="url(#paint11_linear_267_7466)"/>
<path id="path124" fill-rule="evenodd" clip-rule="evenodd" d="M24.651 14.5342C24.7189 14.5342 24.775 14.5407 24.8193 14.5537C24.8638 14.5669 24.8977 14.5818 24.9211 14.5988C24.9447 14.6158 24.9623 14.6432 24.974 14.6811C24.9858 14.7189 24.9923 14.7502 24.9936 14.775C24.9949 14.7998 24.9956 14.8383 24.9956 14.8905V17.0716C24.9956 17.1317 24.9936 17.1767 24.9897 17.2066C24.9858 17.2367 24.9734 17.2713 24.9525 17.3104C24.9316 17.3496 24.8964 17.3771 24.8468 17.3927C24.7971 17.4084 24.7306 17.4162 24.647 17.4162C24.5661 17.4162 24.5009 17.4084 24.4513 17.3927C24.4016 17.3771 24.3665 17.3503 24.3455 17.3124C24.3246 17.2745 24.3122 17.2393 24.3084 17.2066C24.3044 17.1741 24.3024 17.1264 24.3024 17.0638V15.6659L24.2515 15.7128C24.1445 15.7937 24.0558 15.8342 23.9853 15.8342C23.9043 15.8342 23.8287 15.7951 23.7582 15.7168C23.6642 15.6123 23.6172 15.5236 23.6172 15.4505C23.6172 15.3826 23.6642 15.3069 23.7582 15.2233L24.4004 14.6438L24.4122 14.636C24.4799 14.5681 24.5596 14.5342 24.651 14.5342ZM26.5384 15.9674C26.9377 16.3511 27.221 16.6396 27.3881 16.8327C27.4742 16.9293 27.5173 17.0063 27.5173 17.0638C27.5173 17.1395 27.4624 17.2256 27.3528 17.3222C27.2536 17.4057 27.1701 17.4475 27.1022 17.4475C27.0369 17.4475 26.9573 17.3927 26.8634 17.2831L26.0019 16.3002V17.0638C26.0019 17.1264 25.9999 17.1721 25.996 17.2008C25.9921 17.2295 25.9796 17.2635 25.9588 17.3026C25.9379 17.3418 25.9027 17.3692 25.853 17.3849C25.8035 17.4005 25.7369 17.4084 25.6534 17.4084C25.5855 17.4084 25.5294 17.4018 25.485 17.3888C25.4406 17.3757 25.4066 17.3601 25.3832 17.3418C25.3597 17.3236 25.3421 17.2968 25.3303 17.2615C25.3186 17.2262 25.312 17.1962 25.3108 17.1715C25.3094 17.1467 25.3088 17.1094 25.3088 17.0599V14.8827C25.3088 14.8226 25.3108 14.7777 25.3146 14.7476C25.3186 14.7176 25.331 14.683 25.3519 14.6438C25.3727 14.6046 25.408 14.5773 25.4575 14.5616C25.5072 14.5459 25.5737 14.5381 25.6573 14.5381C25.7252 14.5381 25.7813 14.5447 25.8257 14.5577C25.87 14.5707 25.9039 14.5864 25.9275 14.6046C25.951 14.623 25.9686 14.6497 25.9804 14.6849C25.9921 14.7202 25.9986 14.7502 25.9999 14.775C26.0012 14.7998 26.0019 14.837 26.0019 14.8866V15.6346C26.3569 15.2351 26.644 14.9075 26.8634 14.6517C26.9547 14.5447 27.0343 14.4911 27.1022 14.4911C27.1701 14.4911 27.2536 14.5329 27.3528 14.6164C27.4624 14.713 27.5173 14.7991 27.5173 14.8749C27.5173 14.9323 27.4742 15.0093 27.3881 15.1059C27.315 15.192 27.2072 15.3069 27.065 15.4505C26.9227 15.5941 26.7994 15.7168 26.6949 15.8185L26.5384 15.9674Z" fill="#FF6600"/>
<path id="path134" d="M12.5762 21.0424L13.0901 19.1246H17.736L18.2498 21.0424C18.3893 21.563 18.929 21.8746 19.4497 21.7352C19.9702 21.5956 20.2819 21.0559 20.1424 20.5353L17.6227 11.1315L17.5355 10.8061C17.4254 10.3952 17.0657 10.1144 16.6631 10.083H16.5123H14.3137H14.163C13.7603 10.1144 13.4007 10.3952 13.2906 10.8061L12.8938 12.2867L12.338 14.3608L12.3349 14.3729C12.3347 14.3735 12.3345 14.3742 12.3344 14.375C12.2042 14.891 12.5149 15.4223 13.0308 15.5606C13.5515 15.7001 14.0913 15.3883 14.2306 14.8679L14.9224 12.2867H15.9038L17.2066 17.1487H13.6196H13.0376C12.3077 17.1487 11.6671 17.5497 11.3249 18.1422L11.0617 19.1246L10.6837 20.5353C10.5442 21.0559 10.8559 21.5956 11.3764 21.7352C11.8971 21.8746 12.4368 21.563 12.5762 21.0424ZM24.6039 21.9741L24.6124 21.9756L24.6038 21.9748V25.3145C24.6038 25.8536 25.0447 26.2947 25.584 26.2947C26.1232 26.2947 26.5643 25.8537 26.5643 25.3145V21.9752C26.5595 21.9759 26.5548 21.9764 26.55 21.9765C27.2419 21.8648 27.8969 21.6353 28.4936 21.309C29.3921 20.8177 30.1521 20.1085 30.7004 19.2543C31.011 18.7702 30.8706 18.126 30.3866 17.8153C29.9025 17.5046 29.2582 17.6451 28.9476 18.1291C28.8182 18.3306 28.6717 18.5196 28.51 18.6939C28.2179 19.009 27.8765 19.2762 27.4988 19.4827C26.9346 19.7912 26.2823 19.9666 25.584 19.9666C24.8878 19.9666 24.238 19.7926 23.6762 19.4864C23.2967 19.2797 22.9547 19.0144 22.6631 18.703C22.5007 18.5296 22.354 18.342 22.2248 18.1423C21.9141 17.6606 21.2717 17.5219 20.7899 17.8326C20.3082 18.1433 20.1694 18.7858 20.4801 19.2675C20.58 19.4219 20.6864 19.5713 20.7992 19.7156L20.8051 19.7109C21.3156 20.3629 21.9549 20.907 22.6837 21.304C23.2744 21.6258 23.9217 21.853 24.605 21.9651L24.6039 21.9741ZM29.1015 11.0219C28.8259 10.8253 28.5332 10.6514 28.2265 10.503C27.7076 10.2519 27.1492 10.0722 26.5643 9.97651V6.63888C26.5643 6.09965 26.1232 5.65857 25.584 5.65857C25.0447 5.65857 24.6038 6.09975 24.6038 6.63888V9.97704C24.0275 10.0717 23.476 10.2486 22.9617 10.4952C22.1348 10.8915 21.4126 11.467 20.8473 12.17C20.4871 12.618 20.5583 13.2734 21.0062 13.6335C21.4542 13.9936 22.1095 13.9224 22.4696 13.4746C22.663 13.2342 22.8827 13.0169 23.1242 12.8273C23.3512 12.6492 23.5972 12.4955 23.8586 12.3703C24.3747 12.1229 24.9598 11.9841 25.584 11.9841C26.2105 11.9841 26.8 12.1258 27.3215 12.3782C27.5881 12.5071 27.8378 12.6643 28.0668 12.8455C28.3082 13.0368 28.5265 13.255 28.7169 13.4951C29.0725 13.9455 29.7261 14.022 30.1764 13.6664C30.2142 13.6365 30.2492 13.6045 30.2817 13.5707C30.1353 13.7219 29.951 13.8191 29.7565 13.8611C29.7554 13.8614 29.7541 13.8616 29.7529 13.8619C29.9021 13.8292 30.0464 13.7631 30.1742 13.6622C30.6243 13.3067 30.7008 12.6536 30.3454 12.2036C29.9882 11.7528 29.5694 11.3542 29.1015 11.0219ZM36.5337 18.0574L37.8854 21.3413C38.0355 21.7057 38.3833 21.932 38.7544 21.9472H38.8343C38.9452 21.9426 39.0569 21.919 39.1649 21.8746C39.6637 21.6695 39.9036 21.0937 39.6983 20.5951L38.3403 17.296C39.3456 16.5471 39.9996 15.35 39.9996 14.0074C39.9996 11.7529 38.155 9.9083 35.9005 9.9083H32.5645C32.0253 9.9083 31.5843 10.3494 31.5843 10.8886V11.7557V16.2592V18.1065V20.967C31.5843 21.5062 32.0253 21.9472 32.5645 21.9472C33.1038 21.9472 33.5448 21.5062 33.5448 20.967V18.1065H35.9005C36.1158 18.1065 36.3272 18.0897 36.5337 18.0574ZM33.5448 16.2592V11.7557H33.9815H35.9005C35.9549 11.7557 36.009 11.7577 36.0624 11.7616C37.223 11.8457 38.1522 12.827 38.1522 14.0074C38.1522 14.57 37.9412 15.0873 37.5945 15.4839C37.1804 15.9578 36.5728 16.2592 35.9005 16.2592H35.7936H33.5448Z" fill="url(#paint12_linear_267_7466)"/>
<path id="path144" d="M22.4508 21.7323C22.0356 21.5062 21.6469 21.2355 21.2912 20.9267C21.0508 21.0599 20.8074 21.1913 20.5612 21.3211L20.5611 21.3212L20.3591 21.4269C19.836 21.6988 19.3134 21.9557 18.7932 22.1976C16.7809 23.1329 14.8042 23.8418 12.965 24.3149L12.4577 23.9971C9.32754 21.9999 6.72249 19.7281 4.89624 17.5396C4.00073 16.4666 3.29245 15.4135 2.80141 14.4227C1.90758 12.6193 1.73309 11.0219 2.45837 9.88519C2.85043 9.27066 3.47539 8.83793 4.28473 8.57802C2.53075 8.69974 1.20231 9.2835 0.511023 10.3669C-1.15055 12.9712 1.35751 17.6991 6.32532 22.0994C7.40658 23.0571 8.60434 23.9993 9.90097 24.9007C9.39555 24.9603 8.90868 24.9972 8.4433 25.0111C8.44529 25.0131 8.44726 25.0152 8.44956 25.0168C8.34433 25.0181 8.24023 25.0181 8.13729 25.0168C8.10725 25.017 8.07732 25.0172 8.04749 25.0172C7.08221 25.0183 6.21873 24.9141 5.48604 24.7018C4.3955 24.3858 3.59418 23.8306 3.17656 23.0271C2.84114 22.3817 2.77898 21.6259 2.95817 20.7968C2.18824 22.3731 2.03002 23.8123 2.62128 24.9501C3.65957 26.948 6.78726 27.5885 10.8458 26.9712C11.4172 26.8842 12.0072 26.7724 12.6123 26.6358C14.1817 27.558 15.7459 28.3389 17.2588 28.9703C18.8996 29.6552 20.4798 30.1642 21.9407 30.4873C25.7122 31.3209 28.6877 30.9141 29.8529 29.0881C30.5374 28.0152 30.5143 26.5818 29.903 24.9594C29.8995 24.9642 29.8959 24.969 29.8924 24.9737C29.984 25.7922 29.8517 26.5197 29.4693 27.1192C28.3989 28.7968 25.593 29.1199 22.0375 28.2696C20.0645 27.7977 17.8608 26.9645 15.5946 25.8008C17.4574 25.183 19.4043 24.3636 21.3577 23.3484C22.0822 22.9718 22.7843 22.5806 23.4613 22.1776C23.1131 22.058 22.7752 21.909 22.4508 21.7323ZM31.86 9.60171C32.0694 9.48636 32.3097 9.42064 32.5649 9.42064H33.6378C33.5845 9.25366 33.5176 9.0919 33.4364 8.93576C32.8452 7.79798 31.5764 7.10033 29.8439 6.82446C30.6254 7.15425 31.2083 7.63955 31.5436 8.28494C31.7513 8.68441 31.8541 9.12632 31.86 9.60171Z" fill="url(#paint13_linear_267_7466)"/>
<path id="path153" d="M31.0994 19.5101C30.7339 20.0796 30.2822 20.5877 29.7639 21.0171C29.1215 22.5485 28.1924 23.936 27.0383 25.1083V25.3145C27.0383 26.1152 26.385 26.7684 25.5843 26.7684C25.4302 26.7684 25.2815 26.7442 25.142 26.6993C24.4063 27.2058 23.6139 27.6393 22.7748 27.9887C23.2981 28.0942 23.8189 28.1752 24.3326 28.2268C24.9974 28.2937 25.8223 28.323 26.6165 28.2106C27.2661 27.7401 27.8769 27.2191 28.4425 26.6535C28.9676 26.1283 29.452 25.5668 29.8923 24.9737C29.8959 24.9689 29.8994 24.9641 29.903 24.9594C30.5725 24.0553 31.1396 23.0784 31.5925 22.0463C31.2971 21.7799 31.111 21.3944 31.111 20.967V19.4917L31.0994 19.5101ZM27.0383 6.8891C28.1695 8.03669 29.0908 9.39684 29.7355 10.9104C30.0971 11.2072 30.4267 11.5425 30.7172 11.9097C30.7299 11.9256 30.7421 11.9417 30.7538 11.958C30.8882 11.7006 31.0096 11.4371 31.111 11.1716C31.2584 10.7855 31.3639 10.3949 31.4062 10.0121C31.4221 9.86816 31.4291 9.72538 31.426 9.58437C30.6798 8.0005 29.6659 6.56755 28.4425 5.34414C25.7157 2.61727 21.9487 0.930664 17.7878 0.930664C13.6272 0.930664 9.86005 2.61727 7.13317 5.34414C4.94167 7.53564 3.42225 10.3993 2.91016 13.599C3.2947 14.5355 3.8457 15.4142 4.29085 16.0424C4.46273 16.2849 4.64191 16.5253 4.82778 16.7632C4.39035 9.3085 10.3146 3.01662 17.7878 3.01662C20.4841 3.01662 23.0063 3.84339 25.0974 5.26904C25.2497 5.21459 25.4137 5.18488 25.5843 5.18488C26.385 5.18488 27.0383 5.8382 27.0383 6.6389V6.8891ZM8.04286 24.5768C7.68377 24.169 7.3497 23.7385 7.04327 23.2877C5.64881 22.1415 4.30326 20.8707 3.13158 19.5112C3.52656 21.165 4.19385 22.7131 5.08393 24.1049C5.96473 24.4638 7.04682 24.5762 8.04286 24.5768ZM21.0238 30.7185C19.2817 30.2688 17.5369 29.61 15.8759 28.8412C14.28 28.6056 12.7786 28.0796 11.4273 27.3188C10.3798 27.5023 9.28652 27.6251 8.2138 27.6346C11.7289 30.5303 16.4326 31.7236 21.0238 30.7185Z" fill="url(#paint14_linear_267_7466)"/>
</g>
<defs>
<linearGradient id="paint0_linear_267_7466" x1="28.3197" y1="15.3243" x2="28.3145" y2="15.4243" gradientUnits="userSpaceOnUse">
<stop stop-color="#B664D2"/>
<stop offset="1" stop-color="#5E007D"/>
</linearGradient>
<linearGradient id="paint1_linear_267_7466" x1="20.1563" y1="22.9337" x2="20.1537" y2="22.9835" gradientUnits="userSpaceOnUse">
<stop stop-color="#B664D2"/>
<stop offset="1" stop-color="#5E007D"/>
</linearGradient>
<linearGradient id="paint2_linear_267_7466" x1="30.5889" y1="22.9536" x2="33.9606" y2="22.9536" gradientUnits="userSpaceOnUse">
<stop stop-color="#FECF63"/>
<stop offset="1" stop-color="#FFB300"/>
</linearGradient>
<linearGradient id="paint3_linear_267_7466" x1="28.2715" y1="2.66473" x2="31.6432" y2="2.66473" gradientUnits="userSpaceOnUse">
<stop stop-color="#FECF63"/>
<stop offset="1" stop-color="#FFB300"/>
</linearGradient>
<linearGradient id="paint4_linear_267_7466" x1="2.7793" y1="5.65857" x2="5.35139" y2="5.65857" gradientUnits="userSpaceOnUse">
<stop stop-color="#FECF63"/>
<stop offset="1" stop-color="#FFB300"/>
</linearGradient>
<linearGradient id="paint5_linear_267_7466" x1="5.78027" y1="27.5184" x2="9.15201" y2="27.5184" gradientUnits="userSpaceOnUse">
<stop stop-color="#FECF63"/>
<stop offset="1" stop-color="#FFB300"/>
</linearGradient>
<linearGradient id="paint6_linear_267_7466" x1="7.7002" y1="8.95728" x2="10.651" y2="8.95728" gradientUnits="userSpaceOnUse">
<stop stop-color="#FECF63"/>
<stop offset="1" stop-color="#FFB300"/>
</linearGradient>
<linearGradient id="paint7_linear_267_7466" x1="12.499" y1="5.28601" x2="14.4982" y2="5.28601" gradientUnits="userSpaceOnUse">
<stop stop-color="#FECF63"/>
<stop offset="1" stop-color="#FFB300"/>
</linearGradient>
<linearGradient id="paint8_linear_267_7466" x1="17.917" y1="5.1275" x2="21.3109" y2="5.1275" gradientUnits="userSpaceOnUse">
<stop stop-color="#FECF63"/>
<stop offset="1" stop-color="#FFB300"/>
</linearGradient>
<linearGradient id="paint9_linear_267_7466" x1="5.92383" y1="15.7957" x2="8.16738" y2="15.7957" gradientUnits="userSpaceOnUse">
<stop stop-color="#FECF63"/>
<stop offset="1" stop-color="#FFB300"/>
</linearGradient>
<linearGradient id="paint10_linear_267_7466" x1="20.7432" y1="24.0818" x2="22.9867" y2="24.0818" gradientUnits="userSpaceOnUse">
<stop stop-color="#FECF63"/>
<stop offset="1" stop-color="#FFB300"/>
</linearGradient>
<linearGradient id="paint11_linear_267_7466" x1="22.29" y1="12.692" x2="28.8448" y2="12.692" gradientUnits="userSpaceOnUse">
<stop stop-color="#FECF63"/>
<stop offset="1" stop-color="#FFB300"/>
</linearGradient>
<linearGradient id="paint12_linear_267_7466" x1="8.96939" y1="6.67683" x2="7.88938" y2="27.2847" gradientUnits="userSpaceOnUse">
<stop stop-color="#B664D2"/>
<stop offset="1" stop-color="#5E007D"/>
</linearGradient>
<linearGradient id="paint13_linear_267_7466" x1="-1.72742" y1="7.28371" x2="-2.98748" y2="31.3272" gradientUnits="userSpaceOnUse">
<stop stop-color="#B664D2"/>
<stop offset="1" stop-color="#5E007D"/>
</linearGradient>
<linearGradient id="paint14_linear_267_7466" x1="2.91016" y1="0.930664" x2="31.5925" y2="0.930664" gradientUnits="userSpaceOnUse">
<stop stop-color="#FECF63"/>
<stop offset="1" stop-color="#FFB300"/>
</linearGradient>
</defs>
</svg>
