<svg width="24" height="24" viewBox="0 0 24 24" fill="none" xmlns="http://www.w3.org/2000/svg">
<g id="Component 1">
<path id="Vector" d="M20.82 4.46504C19.8794 3.55164 18.6211 3.03898 17.31 3.03504H6.75C6.0984 3.02579 5.45142 3.1458 4.8465 3.38816C4.24157 3.63052 3.69069 3.9904 3.22573 4.447C2.76076 4.90359 2.39093 5.44784 2.13763 6.04827C1.88433 6.64869 1.75258 7.29338 1.75 7.94504V16.055C1.75257 16.7011 1.88289 17.3403 2.13346 17.9359C2.38402 18.5314 2.74989 19.0715 3.21 19.525C4.14539 20.4475 5.40626 20.9648 6.72 20.965H17.28C18.5937 20.9648 19.8546 20.4475 20.79 19.525C21.2533 19.0738 21.6212 18.5342 21.872 17.9381C22.1228 17.3421 22.2513 16.7017 22.25 16.055V7.94504C22.2543 7.29914 22.1301 6.65882 21.8846 6.06137C21.6391 5.46393 21.2772 4.92129 20.82 4.46504ZM11.66 16.715C11.4611 16.715 11.2703 16.636 11.1297 16.4954C10.989 16.3547 10.91 16.164 10.91 15.965C10.9096 15.6619 10.8494 15.3619 10.7327 15.0822C10.616 14.8024 10.4452 14.5485 10.23 14.335C9.78092 13.9197 9.19171 13.689 8.58 13.689C7.96829 13.689 7.37908 13.9197 6.93 14.335C6.71395 14.5479 6.54252 14.8016 6.42576 15.0815C6.309 15.3614 6.24924 15.6618 6.25 15.965C6.25 16.164 6.17098 16.3547 6.03033 16.4954C5.88968 16.636 5.69891 16.715 5.5 16.715C5.30109 16.715 5.11032 16.636 4.96967 16.4954C4.82902 16.3547 4.75 16.164 4.75 15.965C4.74921 15.4633 4.84777 14.9665 5.04 14.503C5.23223 14.0396 5.51432 13.6189 5.87 13.265C6.21248 12.9082 6.61972 12.6197 7.07 12.415C6.66521 12.1664 6.33118 11.8177 6.10001 11.4027C5.86885 10.9876 5.74832 10.5201 5.75 10.045C5.75 9.30244 6.045 8.59025 6.5701 8.06514C7.0952 7.54004 7.80739 7.24504 8.55 7.24504C9.29261 7.24504 10.0048 7.54004 10.5299 8.06514C11.055 8.59025 11.35 9.30244 11.35 10.045C11.3559 10.5164 11.2415 10.9814 11.0175 11.3961C10.7935 11.8108 10.4674 12.1615 10.07 12.415C10.527 12.605 10.945 12.88 11.3 13.225C12.011 13.9446 12.4129 14.9135 12.42 15.925C12.427 16.0281 12.4124 16.1314 12.3771 16.2284C12.3418 16.3254 12.2866 16.414 12.215 16.4884C12.1434 16.5628 12.0571 16.6214 11.9615 16.6604C11.8659 16.6995 11.7632 16.7181 11.66 16.715ZM18.19 15.835H14.6C14.4011 15.835 14.2103 15.756 14.0697 15.6154C13.929 15.4747 13.85 15.284 13.85 15.085C13.85 14.8861 13.929 14.6954 14.0697 14.5547C14.2103 14.4141 14.4011 14.335 14.6 14.335H18.19C18.3889 14.335 18.5797 14.4141 18.7203 14.5547C18.861 14.6954 18.94 14.8861 18.94 15.085C18.94 15.284 18.861 15.4747 18.7203 15.6154C18.5797 15.756 18.3889 15.835 18.19 15.835ZM13.85 11.995C13.85 11.7961 13.929 11.6054 14.0697 11.4647C14.2103 11.3241 14.4011 11.245 14.6 11.245H16.14C16.3389 11.245 16.5297 11.3241 16.6703 11.4647C16.811 11.6054 16.89 11.7961 16.89 11.995C16.89 12.194 16.811 12.3847 16.6703 12.5254C16.5297 12.666 16.3389 12.745 16.14 12.745H14.6C14.5011 12.7464 14.403 12.7279 14.3114 12.6907C14.2198 12.6535 14.1366 12.5983 14.0667 12.5284C13.9968 12.4585 13.9416 12.3752 13.9044 12.2836C13.8671 12.192 13.8487 12.0939 13.85 11.995ZM18.19 9.66504H14.6C14.4011 9.66504 14.2103 9.58603 14.0697 9.44537C13.929 9.30472 13.85 9.11396 13.85 8.91504C13.85 8.71613 13.929 8.52537 14.0697 8.38471C14.2103 8.24406 14.4011 8.16504 14.6 8.16504H18.19C18.3889 8.16504 18.5797 8.24406 18.7203 8.38471C18.861 8.52537 18.94 8.71613 18.94 8.91504C18.94 9.11396 18.861 9.30472 18.7203 9.44537C18.5797 9.58603 18.3889 9.66504 18.19 9.66504Z" fill="white"/>
<path id="Vector_2" d="M8.58027 11.385C8.75099 11.385 8.92004 11.3514 9.07776 11.2861C9.23549 11.2207 9.3788 11.125 9.49951 11.0043C9.62023 10.8836 9.71599 10.7402 9.78132 10.5825C9.84665 10.4248 9.88027 10.2558 9.88027 10.085C9.88027 9.91432 9.84665 9.74527 9.78132 9.58755C9.71599 9.42982 9.62023 9.28651 9.49951 9.1658C9.3788 9.04508 9.23549 8.94932 9.07776 8.88399C8.92004 8.81866 8.75099 8.78503 8.58027 8.78503C8.23549 8.78503 7.90483 8.922 7.66103 9.1658C7.41724 9.40959 7.28027 9.74025 7.28027 10.085C7.28027 10.4298 7.41724 10.7605 7.66103 11.0043C7.90483 11.2481 8.23549 11.385 8.58027 11.385Z" fill="white"/>
</g>
</svg>
